<?xml version="1.0" standalone="no"?>
<!DOCTYPE svg PUBLIC "-//W3C//DTD SVG 20010904//EN"
 "http://www.w3.org/TR/2001/REC-SVG-20010904/DTD/svg10.dtd">
<svg version="1.0" xmlns="http://www.w3.org/2000/svg"
 width="225.000000pt" height="225.000000pt" viewBox="0 0 225.000000 225.000000"
 preserveAspectRatio="xMidYMid meet">
<metadata>
Created by potrace 1.14, written by Peter Selinger 2001-2017
</metadata>
<g transform="translate(0.000000,225.000000) scale(0.100000,-0.100000)"
fill="#000000" stroke="none">
<path d="M1035 2079 c-259 -20 -518 -166 -682 -384 -44 -58 -133 -226 -133
-251 0 -7 -19 -31 -42 -53 l-43 -40 0 -226 0 -226 43 -40 c23 -22 42 -46 42
-53 0 -6 16 -44 35 -85 92 -191 221 -328 411 -436 l79 -45 -373 0 -372 0 0
-120 0 -120 610 0 610 0 0 83 0 84 86 17 c310 61 584 283 704 573 18 42 43 86
57 97 46 36 53 70 53 271 0 201 -7 235 -53 271 -14 11 -39 55 -57 97 -93 224
-292 424 -514 516 -144 60 -297 83 -461 70z m42 -346 c-2 -2 -64 -2 -137 -1
l-132 3 51 77 c56 83 104 127 172 158 l44 19 3 -126 c1 -69 1 -127 -1 -130z
m206 200 c37 -26 115 -121 143 -175 l15 -28 -136 0 -135 0 0 130 0 130 38 -15
c20 -9 54 -28 75 -42z m-481 -41 c-20 -27 -51 -74 -67 -105 l-30 -57 -99 0
-99 0 24 26 c52 56 257 183 297 184 7 0 -5 -22 -26 -48z m701 12 c80 -40 179
-108 216 -148 l24 -26 -99 0 -99 0 -34 63 c-18 34 -49 81 -68 105 -19 23 -29
42 -23 42 6 0 43 -16 83 -36z m-863 -379 l-25 -105 -152 0 c-84 0 -153 2 -153
4 0 12 48 109 76 154 l34 52 123 0 123 0 -26 -105z m440 0 l0 -105 -185 0
-185 0 6 28 c14 64 38 148 46 165 8 15 26 17 163 17 l155 0 0 -105z m408 88
c8 -17 32 -101 46 -165 l6 -28 -185 0 -185 0 0 105 0 105 155 0 c137 0 155 -2
163 -17z m360 -10 c19 -28 92 -168 92 -178 0 -3 -69 -5 -152 -5 l-153 0 -25
105 -26 105 122 0 c122 0 123 0 142 -27z m170 -475 l-3 -203 -892 -3 -893 -2
0 205 0 205 895 0 895 0 -2 -202z m-1378 -403 l26 -105 -123 0 -123 0 -34 53
c-28 44 -76 141 -76 153 0 2 69 4 153 4 l152 0 25 -105z m440 0 l0 -105 -155
0 c-137 0 -155 2 -163 18 -8 16 -32 100 -46 165 l-6 27 185 0 185 0 0 -105z
m454 78 c-14 -65 -38 -149 -46 -165 -8 -16 -26 -18 -163 -18 l-155 0 0 105 0
105 185 0 185 0 -6 -27z m406 23 c0 -12 -48 -109 -76 -153 l-34 -53 -123 0
-123 0 26 105 25 105 153 0 c83 0 152 -2 152 -4z m-1220 -336 c7 -16 35 -62
62 -101 27 -40 47 -74 44 -76 -15 -15 -243 125 -295 181 l-24 26 100 0 101 0
12 -30z m360 -100 c0 -71 -2 -130 -5 -130 -13 0 -66 28 -108 58 -42 30 -115
119 -146 180 l-12 22 136 0 135 0 0 -130z m346 103 c-51 -99 -135 -183 -218
-218 l-38 -15 0 130 0 130 135 0 136 0 -15 -27z m293 1 c-51 -55 -260 -184
-299 -184 -5 0 6 21 25 46 19 25 50 72 68 105 l32 59 99 0 99 0 -24 -26z
m-1019 -344 c0 -21 15 -27 25 -10 3 6 11 10 17 10 6 0 6 -6 -2 -15 -10 -12
-10 -21 -2 -40 14 -30 -3 -35 -24 -7 -13 16 -13 16 -14 0 0 -10 -4 -18 -10
-18 -5 0 -10 23 -10 50 0 28 5 50 10 50 6 0 10 -9 10 -20z m372 8 c7 -19 -3
-88 -12 -88 -9 0 -17 56 -12 83 4 20 18 23 24 5z m-871 -24 c11 -14 10 -16
-11 -12 -18 2 -26 -2 -28 -16 -3 -16 0 -18 23 -12 20 5 26 3 23 -6 -3 -7 -18
-13 -34 -13 -25 0 -30 4 -32 29 -5 42 33 62 59 30z m89 2 c6 -8 10 -25 8 -38
-4 -30 -46 -38 -65 -12 -17 23 -16 29 3 48 19 20 38 20 54 2z m88 1 c14 -9 17
-67 3 -67 -5 0 -11 11 -13 25 -4 35 -22 36 -26 3 -5 -42 -22 -34 -22 10 0 33
3 38 23 37 12 0 28 -4 35 -8z m93 4 c12 -2 16 -38 7 -55 -5 -9 -18 -16 -28
-16 -11 0 -20 -4 -20 -10 0 -5 -7 -10 -15 -10 -11 0 -15 11 -15 43 0 24 2 46
5 48 4 4 47 4 66 0z m107 -35 l3 -37 -38 3 c-31 2 -39 7 -41 26 -5 32 16 53
47 49 22 -3 26 -9 29 -41z m83 28 c11 -13 9 -15 -17 -12 -20 2 -29 -1 -29 -12
0 -10 9 -14 28 -13 24 2 27 0 17 -13 -15 -17 -42 -18 -58 -2 -16 16 -15 33 4
52 20 20 38 20 55 0z m144 6 c3 -5 -2 -10 -12 -11 -15 0 -14 -2 5 -11 40 -20
16 -61 -25 -43 -17 8 -17 8 0 12 17 5 17 5 1 17 -10 8 -15 20 -11 30 7 18 32
22 42 6z m133 -32 c2 -22 -1 -38 -7 -38 -6 0 -11 14 -11 30 0 17 -4 30 -10 30
-5 0 -10 -13 -10 -30 0 -20 -5 -30 -15 -30 -10 0 -15 10 -15 33 0 41 3 44 38
43 24 -1 27 -5 30 -38z m80 30 c20 -20 13 -38 -15 -39 l-28 -1 30 -8 c24 -5
27 -8 13 -14 -28 -12 -53 -2 -56 22 -6 41 30 66 56 40z m-898 -33 c0 -19 -4
-35 -10 -35 -5 0 -10 16 -10 35 0 19 5 35 10 35 6 0 10 -16 10 -35z m730 -25
c0 -5 -4 -10 -10 -10 -5 0 -10 5 -10 10 0 6 5 10 10 10 6 0 10 -4 10 -10z"/>
<path d="M502 1268 c-17 -17 -17 -269 0 -286 16 -16 53 -15 66 1 6 7 12 34 14
61 l3 49 47 -62 c36 -45 54 -61 73 -61 37 0 45 27 45 155 0 126 -8 155 -44
155 -33 0 -44 -18 -48 -75 l-3 -50 -48 63 c-49 63 -78 77 -105 50z"/>
<path d="M832 1268 c-17 -17 -17 -269 0 -286 16 -16 160 -16 176 0 18 18 14
56 -7 68 -11 5 -36 10 -55 10 -20 0 -36 5 -36 10 0 6 19 10 43 10 47 0 67 13
67 45 0 32 -20 45 -67 45 -24 0 -43 5 -43 10 0 6 16 10 36 10 47 0 74 16 74
43 0 38 -19 47 -100 47 -46 0 -81 -5 -88 -12z"/>
<path d="M1090 1264 c-11 -13 -9 -36 14 -137 33 -143 39 -157 69 -157 32 0 41
10 62 65 15 41 20 46 26 30 5 -11 15 -37 23 -57 12 -29 21 -38 39 -38 14 0 30
7 37 15 6 7 24 69 40 137 32 136 29 158 -20 158 -31 0 -50 -22 -50 -59 0 -31
-17 -25 -25 8 -15 67 -69 69 -101 2 l-21 -44 -7 33 c-3 18 -11 39 -17 47 -15
18 -54 17 -69 -3z"/>
<path d="M1502 1255 c-35 -30 -45 -69 -27 -111 17 -40 51 -64 92 -64 18 0 33
-4 33 -10 0 -5 -22 -10 -50 -10 -36 0 -55 -5 -70 -20 -20 -20 -18 -47 4 -62
17 -12 132 -9 160 3 33 15 59 71 51 109 -9 41 -58 80 -101 80 -19 0 -34 5 -34
10 0 6 20 10 43 10 57 0 86 27 69 65 -11 23 -17 25 -76 25 -54 0 -69 -4 -94
-25z"/>
<path d="M256 123 c-12 -12 -6 -33 9 -33 8 0 15 6 15 14 0 17 -14 28 -24 19z"/>
<path d="M430 111 c0 -12 6 -21 16 -21 9 0 14 7 12 17 -5 25 -28 28 -28 4z"/>
<path d="M523 115 c-7 -20 2 -29 21 -22 9 4 13 13 10 22 -8 19 -23 19 -31 0z"/>
<path d="M988 123 c7 -3 16 -2 19 1 4 3 -2 6 -13 5 -11 0 -14 -3 -6 -6z"/>
</g>
</svg>
